<mxfile host="65bd71144e" modified="2021-01-09T12:36:48.997Z" agent="5.0 (Windows NT 6.1; Win64; x64) AppleWebKit/537.36 (KHTML, like Gecko) Code/1.51.1 Chrome/83.0.4103.122 Electron/9.3.3 Safari/537.36" etag="8nDMWcMp9N2km834978c" version="13.10.0" type="embed">
    <diagram id="v6CWL5Xo1uuj7o1O4dyY" name="Page-1">
        <mxGraphModel dx="1139" dy="789" grid="0" gridSize="10" guides="1" tooltips="1" connect="1" arrows="1" fold="1" page="1" pageScale="1" pageWidth="827" pageHeight="1169" background="#ffffff" math="0" shadow="0">
            <root>
                <mxCell id="0"/>
                <mxCell id="1" parent="0"/>
                <mxCell id="6" value="" style="rounded=0;whiteSpace=wrap;html=1;shadow=0;glass=0;sketch=0;fillColor=#006969;strokeColor=#66FFFF;" parent="1" vertex="1">
                    <mxGeometry x="40" y="20" width="120" height="140" as="geometry"/>
                </mxCell>
                <mxCell id="2" value="X = 4" style="whiteSpace=wrap;html=1;glass=0;rounded=0;sketch=0;shadow=0;fillColor=#009999;strokeColor=#99FFFF;" parent="1" vertex="1">
                    <mxGeometry x="50" y="60" width="100" height="40" as="geometry"/>
                </mxCell>
                <mxCell id="4" value="Y = 5" style="whiteSpace=wrap;html=1;fillColor=#009999;strokeColor=#99FFFF;" parent="1" vertex="1">
                    <mxGeometry x="50" y="100" width="100" height="40" as="geometry"/>
                </mxCell>
                <mxCell id="5" value="&lt;font style=&quot;line-height: 170% ; font-size: 18px&quot; color=&quot;#ccccff&quot;&gt;P&lt;/font&gt;" style="text;html=1;resizable=0;autosize=1;align=center;verticalAlign=middle;points=[];fontColor=#ffffff;" parent="1" vertex="1">
                    <mxGeometry x="80" y="20" width="30" height="40" as="geometry"/>
                </mxCell>
                <mxCell id="7" value="" style="rounded=0;whiteSpace=wrap;html=1;shadow=0;glass=0;sketch=0;fillColor=#006969;strokeColor=#66FFFF;" parent="1" vertex="1">
                    <mxGeometry x="40" y="316" width="120" height="200" as="geometry"/>
                </mxCell>
                <mxCell id="8" value="0" style="whiteSpace=wrap;html=1;glass=0;rounded=0;sketch=0;shadow=0;fillColor=#009999;strokeColor=#99FFFF;" parent="1" vertex="1">
                    <mxGeometry x="50" y="346" width="100" height="40" as="geometry"/>
                </mxCell>
                <mxCell id="9" value="0" style="whiteSpace=wrap;html=1;fillColor=#009999;strokeColor=#99FFFF;" parent="1" vertex="1">
                    <mxGeometry x="50" y="386" width="100" height="40" as="geometry"/>
                </mxCell>
                <mxCell id="10" value="&lt;font style=&quot;line-height: 170% ; font-size: 18px&quot; color=&quot;#ccccff&quot;&gt;newPtr&lt;/font&gt;" style="text;html=1;resizable=0;autosize=1;align=center;verticalAlign=middle;points=[];fontColor=#ffffff;" parent="1" vertex="1">
                    <mxGeometry x="60" y="310" width="70" height="40" as="geometry"/>
                </mxCell>
                <mxCell id="11" value="0x000c50c8" style="whiteSpace=wrap;html=1;fillColor=#009999;strokeColor=#99FFFF;" parent="1" vertex="1">
                    <mxGeometry x="50" y="456" width="100" height="40" as="geometry"/>
                </mxCell>
                <mxCell id="12" value="" style="rounded=0;whiteSpace=wrap;html=1;shadow=0;glass=0;sketch=0;fillColor=#006969;strokeColor=#66FFFF;" parent="1" vertex="1">
                    <mxGeometry x="200" y="316" width="120" height="200" as="geometry"/>
                </mxCell>
                <mxCell id="13" value="0" style="whiteSpace=wrap;html=1;glass=0;rounded=0;sketch=0;shadow=0;fillColor=#009999;strokeColor=#99FFFF;" parent="1" vertex="1">
                    <mxGeometry x="210" y="346" width="100" height="40" as="geometry"/>
                </mxCell>
                <mxCell id="14" value="0" style="whiteSpace=wrap;html=1;fillColor=#009999;strokeColor=#99FFFF;" parent="1" vertex="1">
                    <mxGeometry x="210" y="386" width="100" height="40" as="geometry"/>
                </mxCell>
                <mxCell id="15" value="&lt;font style=&quot;line-height: 170% ; font-size: 18px&quot; color=&quot;#ccccff&quot;&gt;refPtr&lt;/font&gt;" style="text;html=1;resizable=0;autosize=1;align=center;verticalAlign=middle;points=[];fontColor=#ffffff;" parent="1" vertex="1">
                    <mxGeometry x="225" y="310" width="60" height="40" as="geometry"/>
                </mxCell>
                <mxCell id="16" value="0x000c40f8" style="whiteSpace=wrap;html=1;fillColor=#009999;strokeColor=#99FFFF;" parent="1" vertex="1">
                    <mxGeometry x="210" y="456" width="100" height="40" as="geometry"/>
                </mxCell>
                <mxCell id="17" value="" style="rounded=0;whiteSpace=wrap;html=1;shadow=0;glass=0;sketch=0;fillColor=#006969;strokeColor=#66FFFF;" parent="1" vertex="1">
                    <mxGeometry x="240" y="70" width="120" height="90" as="geometry"/>
                </mxCell>
                <mxCell id="20" value="&lt;font style=&quot;line-height: 170% ; font-size: 18px&quot; color=&quot;#ccccff&quot;&gt;refPtr&lt;/font&gt;" style="text;html=1;resizable=0;autosize=1;align=center;verticalAlign=middle;points=[];fontColor=#ffffff;" parent="1" vertex="1">
                    <mxGeometry x="270" y="60" width="60" height="40" as="geometry"/>
                </mxCell>
                <mxCell id="21" value="0x000c40f8" style="whiteSpace=wrap;html=1;fillColor=#009999;strokeColor=#99FFFF;" parent="1" vertex="1">
                    <mxGeometry x="250" y="106" width="100" height="40" as="geometry"/>
                </mxCell>
                <mxCell id="23" value="" style="endArrow=classic;html=1;entryX=1;entryY=0.121;entryDx=0;entryDy=0;entryPerimeter=0;fillColor=#60a917;strokeColor=#760C1A;" parent="1" target="6" edge="1">
                    <mxGeometry width="50" height="50" relative="1" as="geometry">
                        <mxPoint x="305" y="70" as="sourcePoint"/>
                        <mxPoint x="410" y="290" as="targetPoint"/>
                        <Array as="points">
                            <mxPoint x="310" y="37"/>
                        </Array>
                    </mxGeometry>
                </mxCell>
            </root>
        </mxGraphModel>
    </diagram>
</mxfile>